<svg xmlns="http://www.w3.org/2000/svg" viewBox="0 0 64 64" fill="none">
  <rect width="64" height="64" rx="18" fill="#F4E8DB" />
  <path
    d="M14 30.5 32 16l18 14.5v17A4.5 4.5 0 0 1 45.5 52h-27A4.5 4.5 0 0 1 14 47.5v-17Z"
    fill="#A8653D"
  />
  <path
    d="M24 52V36.5a2.5 2.5 0 0 1 2.5-2.5h11a2.5 2.5 0 0 1 2.5 2.5V52"
    stroke="#FFF8F1"
    stroke-width="4"
    stroke-linecap="round"
    stroke-linejoin="round"
  />
  <path
    d="M21 27.5h22"
    stroke="#FFF8F1"
    stroke-width="4"
    stroke-linecap="round"
  />
  <path
    d="M43.5 15.5c4.5.8 7 4 7.5 8.5-4.6-.8-7-4-7.5-8.5Z"
    fill="#6C8C5A"
  />
</svg>
